
<!DOCTYPE svg PUBLIC "-//W3C//DTD SVG 1.1//EN" "http://www.w3.org/Graphics/SVG/1.1/DTD/svg11.dtd">
<svg xmlns="http://www.w3.org/2000/svg" version="1.1" width="1500px" height="219px" style="shape-rendering:geometricPrecision; text-rendering:geometricPrecision; image-rendering:optimizeQuality; fill-rule:evenodd; clip-rule:evenodd" xmlns:xlink="http://www.w3.org/1999/xlink">
<g><path style="opacity:0.942" fill="#646467" d="M 266.5,-0.5 C 267.833,-0.5 269.167,-0.5 270.5,-0.5C 272.566,3.20174 273.733,7.20174 274,11.5C 274.667,76.5 274.667,141.5 274,206.5C 273.733,210.798 272.566,214.798 270.5,218.5C 269.167,218.5 267.833,218.5 266.5,218.5C 264.498,215.488 263.331,212.155 263,208.5C 262.333,142.167 262.333,75.8333 263,9.5C 263.331,5.84546 264.498,2.51213 266.5,-0.5 Z"/></g>
<g><path style="opacity:0.922" fill="#87909b" d="M 115.5,-0.5 C 117.833,-0.5 120.167,-0.5 122.5,-0.5C 160.845,1.42236 192.345,17.089 217,46.5C 236.51,74.2359 240.844,104.236 230,136.5C 211.536,176.507 180.37,199.674 136.5,206C 115.348,208.57 94.6816,206.404 74.5,199.5C 53.6224,205.546 32.9557,211.88 12.5,218.5C 12.1667,218.5 11.8333,218.5 11.5,218.5C 10.1716,217.493 9.17159,216.16 8.5,214.5C 15.7055,199.922 23.0388,185.422 30.5,171C -1.14812,135.593 -5.98145,96.7601 16,54.5C 40.0462,19.8891 73.2128,1.55578 115.5,-0.5 Z M 107.5,6.5 C 146.108,3.97383 178.941,16.3072 206,43.5C 235.339,80.2651 237.006,118.265 211,157.5C 187.169,186.078 156.503,200.411 119,200.5C 103.843,200.529 89.176,197.863 75,192.5C 56.1318,198.254 37.2985,203.754 18.5,209C 25.2358,196.362 31.5691,183.528 37.5,170.5C 31.1205,162.945 25.2871,154.945 20,146.5C 1.64116,108.367 6.30783,73.3673 34,41.5C 54.4395,21.2984 78.9395,9.6317 107.5,6.5 Z M 77.5,60.5 C 84.5989,60.4607 91.5989,61.294 98.5,63C 105.51,65.174 112.51,67.3406 119.5,69.5C 127.727,66.7027 136.06,64.2027 144.5,62C 172.929,57.1022 183.095,68.6022 175,96.5C 164.721,124.888 146.554,146.722 120.5,162C 119.5,162.667 118.5,162.667 117.5,162C 88.1219,144.752 69.2886,119.585 61,86.5C 58.3911,72.3369 63.8911,63.6703 77.5,60.5 Z"/></g>
<g><path style="opacity:0.972" fill="#646467" d="M 586.5,-0.5 C 593.167,-0.5 599.833,-0.5 606.5,-0.5C 604.405,26.7372 603.905,54.0706 605,81.5C 606.039,82.2438 606.539,83.2438 606.5,84.5C 599.416,85.1255 592.75,84.4589 586.5,82.5C 587.117,82.3893 587.617,82.056 588,81.5C 588.833,55.4936 588.667,29.4936 587.5,3.5C 585.358,2.56289 585.024,1.22955 586.5,-0.5 Z"/></g>
<g><path style="opacity:0.958" fill="#636365" d="M 944.5,-0.5 C 950.833,-0.5 957.167,-0.5 963.5,-0.5C 961.405,26.7372 960.905,54.0706 962,81.5C 963.039,82.2438 963.539,83.2438 963.5,84.5C 958.167,84.5 952.833,84.5 947.5,84.5C 947.754,82.5992 947.42,81.9326 946.5,82.5C 935.465,87.9111 924.465,87.7444 913.5,82C 905.838,76.3454 901.838,68.6787 901.5,59C 905.133,36.7236 918.133,27.7236 940.5,32C 942.193,32.8466 943.86,33.6799 945.5,34.5C 945.56,35.0431 945.893,35.3764 946.5,35.5C 947.823,24.6739 947.823,14.0073 946.5,3.5C 944.896,2.71304 944.229,1.3797 944.5,-0.5 Z M 926.5,44.5 C 942.281,43.1096 948.781,50.1096 946,65.5C 941.464,72.8438 934.964,75.3438 926.5,73C 917.238,68.8881 914.404,62.0548 918,52.5C 920.074,48.9231 922.907,46.2565 926.5,44.5 Z"/></g>
<g><path style="opacity:0.96" fill="#636366" d="M 973.5,-0.5 C 980.167,-0.5 986.833,-0.5 993.5,-0.5C 991.45,16.7282 990.95,34.0615 992,51.5C 996.5,46.3333 1001,41.1667 1005.5,36C 1004.03,35.2904 1003.36,34.1238 1003.5,32.5C 1011.17,32.5 1018.83,32.5 1026.5,32.5C 1026.5,33.5 1026.5,34.5 1026.5,35.5C 1025.32,35.281 1024.32,35.6143 1023.5,36.5C 1017.83,43.1667 1012.17,49.8333 1006.5,56.5C 1013.29,66.4622 1020.29,76.1289 1027.5,85.5C 1020.5,85.5 1013.5,85.5 1006.5,85.5C 1006.33,84.1779 1006.66,83.0113 1007.5,82C 1004,77.1667 1000.5,72.3333 997,67.5C 991.115,72.5844 989.948,78.5844 993.5,85.5C 986.833,85.5 980.167,85.5 973.5,85.5C 973.461,83.6412 974.294,82.3079 976,81.5C 976.833,55.4936 976.667,29.4936 975.5,3.5C 973.889,2.67975 973.222,1.34642 973.5,-0.5 Z"/></g>
<g><path style="opacity:0.235" fill="#767b82" d="M 946.5,3.5 C 947.823,14.0073 947.823,24.6739 946.5,35.5C 945.893,35.3764 945.56,35.0431 945.5,34.5C 946.494,24.3468 946.828,14.0135 946.5,3.5 Z"/></g>
<g><path style="opacity:0.964" fill="#636466" d="M 482.5,81.5 C 483.495,69.6783 483.828,57.6783 483.5,45.5C 481.265,45.2053 479.265,45.5386 477.5,46.5C 477.179,48.0481 476.179,48.7148 474.5,48.5C 474.5,42.5 474.5,36.5 474.5,30.5C 477.025,31.64 479.692,32.3067 482.5,32.5C 482.83,26.9902 482.164,21.6569 480.5,16.5C 486.833,16.5 493.167,16.5 499.5,16.5C 497.836,21.6569 497.17,26.9902 497.5,32.5C 501.415,32.7533 505.081,32.0867 508.5,30.5C 508.5,36.5 508.5,42.5 508.5,48.5C 505.081,46.9133 501.415,46.2467 497.5,46.5C 497.333,58.1714 497.5,69.8381 498,81.5C 499.188,82.5634 499.688,83.8967 499.5,85.5C 493.167,85.5 486.833,85.5 480.5,85.5C 480.229,83.6203 480.896,82.287 482.5,81.5 Z"/></g>
<g><path style="opacity:0.972" fill="#646467" d="M 470.5,29.5 C 471.12,35.9262 470.453,41.9262 468.5,47.5C 466.874,45.7568 464.874,45.2568 462.5,46C 458.759,47.7379 455.592,50.2379 453,53.5C 451.416,62.7576 451.083,72.0909 452,81.5C 453.706,82.3079 454.539,83.6412 454.5,85.5C 447.833,85.5 441.167,85.5 434.5,85.5C 434.312,83.8967 434.812,82.5634 436,81.5C 437.073,65.0371 436.573,48.7037 434.5,32.5C 440.167,32.5 445.833,32.5 451.5,32.5C 451.343,33.8734 451.51,35.2068 452,36.5C 457.79,33.0715 463.957,30.7381 470.5,29.5 Z"/></g>
<g><path style="opacity:0.975" fill="#646467" d="M 756.5,29.5 C 757.12,35.9262 756.453,41.9262 754.5,47.5C 747.681,45.1419 742.514,47.4752 739,54.5C 737.42,63.4236 737.087,72.4236 738,81.5C 739.706,82.3079 740.539,83.6412 740.5,85.5C 733.833,85.5 727.167,85.5 720.5,85.5C 720.312,83.8967 720.812,82.5634 722,81.5C 723.073,65.0371 722.573,48.7037 720.5,32.5C 726.167,32.5 731.833,32.5 737.5,32.5C 737.343,33.8734 737.51,35.2068 738,36.5C 743.825,33.0612 749.992,30.7279 756.5,29.5 Z"/></g>
<g><path style="opacity:0.235" fill="#767b82" d="M 756.5,29.5 C 757.49,35.6446 757.823,41.9779 757.5,48.5C 756.209,48.7373 755.209,48.404 754.5,47.5C 756.453,41.9262 757.12,35.9262 756.5,29.5 Z"/></g>
<g><path style="opacity:0.235" fill="#767b82" d="M 470.5,29.5 C 471.49,35.6446 471.823,41.9779 471.5,48.5C 470.209,48.7373 469.209,48.404 468.5,47.5C 470.453,41.9262 471.12,35.9262 470.5,29.5 Z"/></g>
<g><path style="opacity:0.961" fill="#636365" d="M 635.5,30.5 C 660,28.3407 671.667,39.3407 670.5,63.5C 656.833,63.5 643.167,63.5 629.5,63.5C 630.572,69.0734 633.905,72.5734 639.5,74C 645.572,75.4057 650.906,74.0723 655.5,70C 654.179,68.4555 654.512,67.2888 656.5,66.5C 660.833,69.6667 665.167,72.8333 669.5,76C 665.032,79.3488 660.032,82.6821 654.5,86C 636.039,91.0877 623.205,84.921 616,67.5C 612.049,49.4508 618.549,37.1175 635.5,30.5 Z M 639.5,42.5 C 647.322,41.5761 652.989,44.5761 656.5,51.5C 647.518,52.6653 638.518,52.832 629.5,52C 631.442,47.2247 634.775,44.058 639.5,42.5 Z"/></g>
<g><path style="opacity:0.96" fill="#636365" d="M 1208.5,30.5 C 1232.49,28.6339 1244.16,39.6339 1243.5,63.5C 1229.83,63.5 1216.17,63.5 1202.5,63.5C 1203.57,69.0734 1206.9,72.5734 1212.5,74C 1218.57,75.4057 1223.91,74.0723 1228.5,70C 1227.18,68.4555 1227.51,67.2888 1229.5,66.5C 1233.69,69.8599 1238.03,73.0266 1242.5,76C 1238.03,79.3488 1233.03,82.6821 1227.5,86C 1209.05,91.091 1196.22,84.9243 1189,67.5C 1185.06,49.3736 1191.56,37.0403 1208.5,30.5 Z M 1212.5,42.5 C 1220.28,41.6374 1225.95,44.6374 1229.5,51.5C 1220.52,52.6653 1211.52,52.832 1202.5,52C 1204.44,47.2227 1207.77,44.0561 1212.5,42.5 Z"/></g>
<g><path style="opacity:0.956" fill="#636365" d="M 328.5,31.5 C 349.299,29.2167 360.966,38.3834 363.5,59C 361.029,80.452 349.029,89.452 327.5,86C 324.302,85.1515 321.469,83.6515 319,81.5C 318.003,93.9476 318.503,106.281 320.5,118.5C 314.158,118.666 307.825,118.5 301.5,118C 300.179,116.455 300.512,115.289 302.5,114.5C 303.667,88.5064 303.833,62.5064 303,36.5C 301.294,35.6921 300.461,34.3588 300.5,32.5C 306.5,32.5 312.5,32.5 318.5,32.5C 318.343,33.8734 318.51,35.2068 319,36.5C 321.995,34.3475 325.162,32.6808 328.5,31.5 Z M 328.5,44.5 C 345.801,44.2874 351.634,52.2874 346,68.5C 339.964,73.7225 333.131,74.8891 325.5,72C 318.923,67.441 316.757,61.2743 319,53.5C 321.406,49.5915 324.572,46.5915 328.5,44.5 Z"/></g>
<g><path style="opacity:0.966" fill="#636366" d="M 396.5,30.5 C 417.626,31.4569 427.793,42.4569 427,63.5C 422.244,81.1381 410.744,88.6381 392.5,86C 375.098,81.0528 367.932,69.5528 371,51.5C 375.175,39.1507 383.675,32.1507 396.5,30.5 Z M 398.5,44.5 C 407.467,45.4674 412.467,50.4674 413.5,59.5C 412.254,67.9153 407.421,72.2487 399,72.5C 390.014,72.4286 385.181,67.9286 384.5,59C 385.326,50.3424 389.992,45.509 398.5,44.5 Z"/></g>
<g><path style="opacity:0.966" fill="#636466" d="M 557.5,37.5 C 557.783,38.2891 558.283,38.9558 559,39.5C 559.497,37.1902 559.663,34.8568 559.5,32.5C 565.167,32.5 570.833,32.5 576.5,32.5C 574.427,48.7037 573.927,65.0371 575,81.5C 576.039,82.2438 576.539,83.2438 576.5,84.5C 570.833,84.5 565.167,84.5 559.5,84.5C 559.854,82.2326 559.521,80.8993 558.5,80.5C 545.273,88.9585 532.44,88.2919 520,78.5C 512.605,67.7656 511.605,56.4323 517,44.5C 524.43,33.9066 534.596,29.7399 547.5,32C 551.346,33.0859 554.68,34.9193 557.5,37.5 Z M 538.5,44.5 C 555.263,44.0786 561.096,51.7453 556,67.5C 549.402,74.0426 541.902,75.2092 533.5,71C 526.164,63.65 525.83,55.9833 532.5,48C 534.432,46.5415 536.432,45.3748 538.5,44.5 Z"/></g>
<g><path style="opacity:0.958" fill="#636365" d="M 783.5,31.5 C 792.634,29.788 800.467,32.1213 807,38.5C 807.495,36.5273 807.662,34.5273 807.5,32.5C 813.167,32.5 818.833,32.5 824.5,32.5C 824.688,34.1033 824.188,35.4366 823,36.5C 822.333,51.5 822.333,66.5 823,81.5C 824.188,82.5634 824.688,83.8967 824.5,85.5C 818.833,85.5 813.167,85.5 807.5,85.5C 807.66,83.8008 807.494,82.1341 807,80.5C 797.533,87.0721 787.366,88.2388 776.5,84C 766.921,78.5235 761.921,70.1901 761.5,59C 762.788,44.8895 770.121,35.7229 783.5,31.5 Z M 786.5,44.5 C 801.787,42.9504 808.287,49.617 806,64.5C 801.849,72.3396 795.349,75.1729 786.5,73C 776.42,68.0922 773.92,60.5922 779,50.5C 781.114,47.8792 783.614,45.8792 786.5,44.5 Z"/></g>
<g><path style="opacity:0.965" fill="#646467" d="M 861.5,31.5 C 877.332,29.6459 887.165,36.3126 891,51.5C 891.333,61.5 891.667,71.5 892,81.5C 893.188,82.5634 893.688,83.8967 893.5,85.5C 886.833,85.5 880.167,85.5 873.5,85.5C 875.566,75.035 876.066,64.3684 875,53.5C 872.348,44.9257 866.848,42.4257 858.5,46C 855.533,48.1005 853.7,50.9338 853,54.5C 852.333,63.5 852.333,72.5 853,81.5C 854.604,82.0677 855.27,83.0677 855,84.5C 848.256,85.4788 841.422,85.8122 834.5,85.5C 834.312,83.8967 834.812,82.5634 836,81.5C 837.073,65.0371 836.573,48.7037 834.5,32.5C 840.5,32.5 846.5,32.5 852.5,32.5C 852.343,33.8734 852.51,35.2068 853,36.5C 855.682,34.415 858.516,32.7483 861.5,31.5 Z"/></g>
<g><path style="opacity:0.963" fill="#636366" d="M 1059.5,30.5 C 1086.35,33.523 1095.51,47.8563 1087,73.5C 1075.55,87.3919 1061.72,90.2253 1045.5,82C 1032.28,70.4228 1030.12,56.9228 1039,41.5C 1044.59,35.2927 1051.42,31.626 1059.5,30.5 Z M 1061.5,44.5 C 1075.09,47.0081 1079.25,54.6747 1074,67.5C 1067.8,73.1041 1060.97,73.9374 1053.5,70C 1048.25,64.7345 1047.08,58.5678 1050,51.5C 1052.94,47.4558 1056.78,45.1225 1061.5,44.5 Z"/></g>
<g><path style="opacity:0.96" fill="#646466" d="M 1311.5,30.5 C 1316.29,30.6243 1320.96,31.4577 1325.5,33C 1329.7,36.5424 1334.37,39.2091 1339.5,41C 1335.83,44.6667 1332.17,48.3333 1328.5,52C 1327.55,52.4828 1326.55,52.6495 1325.5,52.5C 1326.27,48.8184 1324.94,46.3184 1321.5,45C 1305.1,42.4008 1298.6,49.2341 1302,65.5C 1304.53,71.0149 1308.86,73.6815 1315,73.5C 1319.04,73.896 1322.54,72.7293 1325.5,70C 1324.18,68.4555 1324.51,67.2888 1326.5,66.5C 1331.63,69.6311 1335.63,73.6311 1338.5,78.5C 1337.13,78.3433 1335.79,78.51 1334.5,79C 1323.52,88.6949 1311.52,90.0282 1298.5,83C 1286.39,73.3041 1283.22,61.1375 1289,46.5C 1293.91,37.312 1301.41,31.9786 1311.5,30.5 Z"/></g>
<g><path style="opacity:0.965" fill="#636366" d="M 1370.5,30.5 C 1393.69,32.2088 1403.52,44.5422 1400,67.5C 1393.77,82.3676 1382.61,88.5343 1366.5,86C 1349.1,81.0528 1341.93,69.5528 1345,51.5C 1349.2,39.1215 1357.7,32.1215 1370.5,30.5 Z M 1372.5,44.5 C 1385.26,47.0147 1389.42,54.348 1385,66.5C 1378.25,73.4724 1370.75,74.3058 1362.5,69C 1355.4,56.4393 1358.74,48.2726 1372.5,44.5 Z"/></g>
<g><path style="opacity:0.97" fill="#636366" d="M 1496.5,84.5 C 1489.42,85.1255 1482.75,84.4589 1476.5,82.5C 1477.12,82.3893 1477.62,82.056 1478,81.5C 1478.67,71.8333 1478.67,62.1667 1478,52.5C 1474.95,43.6921 1469.95,42.3587 1463,48.5C 1462.03,50.3921 1461.36,52.3921 1461,54.5C 1460.33,63.5 1460.33,72.5 1461,81.5C 1462.71,82.3079 1463.54,83.6412 1463.5,85.5C 1456.5,85.5 1449.5,85.5 1442.5,85.5C 1442.46,83.6412 1443.29,82.3079 1445,81.5C 1445.67,72.5 1445.67,63.5 1445,54.5C 1443.21,44.0997 1438.21,42.0997 1430,48.5C 1429.03,50.3921 1428.36,52.3921 1428,54.5C 1427.33,63.5 1427.33,72.5 1428,81.5C 1429.71,82.3079 1430.54,83.6412 1430.5,85.5C 1423.5,85.5 1416.5,85.5 1409.5,85.5C 1409.22,83.6536 1409.89,82.3202 1411.5,81.5C 1412.67,66.5111 1412.83,51.5111 1412,36.5C 1410.29,35.6921 1409.46,34.3588 1409.5,32.5C 1416.05,31.9323 1422.39,32.599 1428.5,34.5C 1439.23,29.3874 1448.73,31.0541 1457,39.5C 1464.69,31.0605 1473.85,29.2271 1484.5,34C 1488.93,37.0925 1491.76,41.2591 1493,46.5C 1494.17,58.1302 1494.83,69.7969 1495,81.5C 1496.04,82.2438 1496.54,83.2438 1496.5,84.5 Z"/></g>
<g><path style="opacity:0.953" fill="#636366" d="M 1167.5,82.5 C 1159.9,84.4668 1151.9,85.1335 1143.5,84.5C 1144.73,83.0242 1145.73,81.3575 1146.5,79.5C 1144.49,71.1237 1142.32,62.7904 1140,54.5C 1137.07,63.1301 1134.23,71.7967 1131.5,80.5C 1133.76,81.4209 1134.76,83.0876 1134.5,85.5C 1126.5,85.5 1118.5,85.5 1110.5,85.5C 1110.24,83.0876 1111.24,81.4209 1113.5,80.5C 1108.04,66.281 1102.87,51.9477 1098,37.5C 1097.29,36.0267 1096.12,35.3601 1094.5,35.5C 1094.5,34.5 1094.5,33.5 1094.5,32.5C 1101.17,32.5 1107.83,32.5 1114.5,32.5C 1114.7,34.3904 1114.04,35.8904 1112.5,37C 1116.14,46.929 1119.98,56.7623 1124,66.5C 1127.04,57.0573 1129.87,47.5573 1132.5,38C 1131.62,36.1999 1130.95,34.3666 1130.5,32.5C 1137.17,32.5 1143.83,32.5 1150.5,32.5C 1149.87,34.4649 1149.2,36.4649 1148.5,38.5C 1150.69,47.9126 1153.19,57.2459 1156,66.5C 1160.31,57.0655 1164.15,47.3989 1167.5,37.5C 1165.7,36.3049 1164.7,34.6382 1164.5,32.5C 1170.83,32.5 1177.17,32.5 1183.5,32.5C 1177.05,47.9897 1171.05,63.823 1165.5,80C 1165.64,81.301 1166.31,82.1344 1167.5,82.5 Z"/></g>
<g><path style="opacity:0.141" fill="#777c83" d="M 559.5,32.5 C 559.663,34.8568 559.497,37.1902 559,39.5C 558.283,38.9558 557.783,38.2891 557.5,37.5C 558.167,35.8333 558.833,34.1667 559.5,32.5 Z"/></g>
<g><path style="opacity:0.141" fill="#777c83" d="M 477.5,46.5 C 479.265,45.5386 481.265,45.2053 483.5,45.5C 483.828,57.6783 483.495,69.6783 482.5,81.5C 482.5,69.8333 482.5,58.1667 482.5,46.5C 480.833,46.5 479.167,46.5 477.5,46.5 Z"/></g>
<g><path style="opacity:0.945" fill="#636365" d="M 676.5,50.5 C 678.103,50.3118 679.437,50.8118 680.5,52C 691.642,53.0224 702.642,52.5224 713.5,50.5C 713.5,55.8333 713.5,61.1667 713.5,66.5C 702.642,64.4776 691.642,63.9776 680.5,65C 679.437,66.1882 678.103,66.6882 676.5,66.5C 676.5,61.1667 676.5,55.8333 676.5,50.5 Z"/></g>
<g><path style="opacity:0.923" fill="#87909b" d="M 74.5,54.5 C 90.1015,53.776 104.935,56.776 119,63.5C 133.376,56.4479 148.542,53.6146 164.5,55C 177.904,58.4117 184.57,67.0784 184.5,81C 181.572,102.685 173.072,121.852 159,138.5C 148.579,151.257 136.079,161.424 121.5,169C 119.029,169.706 116.695,169.373 114.5,168C 84.1856,150.201 64.3523,124.367 55,90.5C 53.3558,80.9919 54.6891,71.9919 59,63.5C 63.2742,58.7854 68.4409,55.7854 74.5,54.5 Z M 77.5,60.5 C 63.8911,63.6703 58.3911,72.3369 61,86.5C 69.2886,119.585 88.1219,144.752 117.5,162C 118.5,162.667 119.5,162.667 120.5,162C 146.554,146.722 164.721,124.888 175,96.5C 183.095,68.6022 172.929,57.1022 144.5,62C 136.06,64.2027 127.727,66.7027 119.5,69.5C 112.51,67.3406 105.51,65.174 98.5,63C 91.5989,61.294 84.5989,60.4607 77.5,60.5 Z"/></g>
<g><path style="opacity:0.943" fill="#636366" d="M 1258.5,66.5 C 1269.17,66.3241 1273.34,71.3241 1271,81.5C 1264.51,88.4255 1258.51,88.0921 1253,80.5C 1251.27,74.3137 1253.1,69.647 1258.5,66.5 Z"/></g>
<g><path style="opacity:0.235" fill="#767b82" d="M 576.5,84.5 C 570.69,85.4896 564.69,85.8229 558.5,85.5C 558.5,83.8333 558.5,82.1667 558.5,80.5C 559.521,80.8993 559.854,82.2326 559.5,84.5C 565.167,84.5 570.833,84.5 576.5,84.5 Z"/></g>
<g><path style="opacity:0.235" fill="#767b82" d="M 586.5,82.5 C 592.75,84.4589 599.416,85.1255 606.5,84.5C 599.687,85.4912 592.687,85.8245 585.5,85.5C 585.263,84.209 585.596,83.209 586.5,82.5 Z"/></g>
<g><path style="opacity:0.235" fill="#767b82" d="M 963.5,84.5 C 958.025,85.4889 952.358,85.8222 946.5,85.5C 946.5,84.5 946.5,83.5 946.5,82.5C 947.42,81.9326 947.754,82.5992 947.5,84.5C 952.833,84.5 958.167,84.5 963.5,84.5 Z"/></g>
<g><path style="opacity:0.235" fill="#767b82" d="M 1167.5,82.5 C 1168.4,83.209 1168.74,84.209 1168.5,85.5C 1159.98,85.8261 1151.65,85.4927 1143.5,84.5C 1151.9,85.1335 1159.9,84.4668 1167.5,82.5 Z"/></g>
<g><path style="opacity:0.235" fill="#767b82" d="M 1476.5,82.5 C 1482.75,84.4589 1489.42,85.1255 1496.5,84.5C 1489.69,85.4912 1482.69,85.8245 1475.5,85.5C 1475.26,84.209 1475.6,83.209 1476.5,82.5 Z"/></g>
<g><path style="opacity:0.85" fill="#868f9a" d="M 402.5,144.5 C 405.167,144.5 407.833,144.5 410.5,144.5C 410.5,147.167 410.5,149.833 410.5,152.5C 407.833,152.5 405.167,152.5 402.5,152.5C 402.5,149.833 402.5,147.167 402.5,144.5 Z"/></g>
<g><path style="opacity:0.235" fill="#767b82" d="M 527.5,145.5 C 525.167,145.5 522.833,145.5 520.5,145.5C 520.5,147.833 520.5,150.167 520.5,152.5C 519.527,150.052 519.194,147.385 519.5,144.5C 522.385,144.194 525.052,144.527 527.5,145.5 Z"/></g>
<g><path style="opacity:0.913" fill="#87909b" d="M 527.5,145.5 C 528.468,147.607 528.802,149.941 528.5,152.5C 525.833,152.5 523.167,152.5 520.5,152.5C 520.5,150.167 520.5,147.833 520.5,145.5C 522.833,145.5 525.167,145.5 527.5,145.5 Z"/></g>
<g><path style="opacity:0.235" fill="#767b82" d="M 577.5,152.5 C 577.5,150.167 577.5,147.833 577.5,145.5C 575.167,145.5 572.833,145.5 570.5,145.5C 570.5,147.833 570.5,150.167 570.5,152.5C 569.527,150.052 569.194,147.385 569.5,144.5C 572.5,144.5 575.5,144.5 578.5,144.5C 578.806,147.385 578.473,150.052 577.5,152.5 Z"/></g>
<g><path style="opacity:0.913" fill="#88939d" d="M 577.5,152.5 C 575.167,152.5 572.833,152.5 570.5,152.5C 570.5,150.167 570.5,147.833 570.5,145.5C 572.833,145.5 575.167,145.5 577.5,145.5C 577.5,147.833 577.5,150.167 577.5,152.5 Z"/></g>
<g><path style="opacity:0.235" fill="#767b82" d="M 791.5,145.5 C 789.167,145.5 786.833,145.5 784.5,145.5C 784.5,147.833 784.5,150.167 784.5,152.5C 783.527,150.052 783.194,147.385 783.5,144.5C 786.385,144.194 789.052,144.527 791.5,145.5 Z"/></g>
<g><path style="opacity:0.913" fill="#87909b" d="M 791.5,145.5 C 793.835,151.838 791.502,154.171 784.5,152.5C 784.5,150.167 784.5,147.833 784.5,145.5C 786.833,145.5 789.167,145.5 791.5,145.5 Z"/></g>
<g><path style="opacity:0.858" fill="#868f9a" d="M 864.5,144.5 C 867.167,144.5 869.833,144.5 872.5,144.5C 872.5,147.167 872.5,149.833 872.5,152.5C 869.833,152.5 867.167,152.5 864.5,152.5C 864.5,149.833 864.5,147.167 864.5,144.5 Z"/></g>
<g><path style="opacity:0.988" fill="#86909b" d="M 322.5,153.5 C 320.167,153.5 317.833,153.5 315.5,153.5C 315.5,172.5 315.5,191.5 315.5,210.5C 312.833,210.5 310.167,210.5 307.5,210.5C 307.5,191.833 307.5,173.167 307.5,154.5C 301.5,155.833 299.167,153.5 300.5,147.5C 307.833,147.5 315.167,147.5 322.5,147.5C 322.5,149.5 322.5,151.5 322.5,153.5 Z"/></g>
<g><path style="opacity:0.067" fill="#777b83" d="M 322.5,153.5 C 320.735,154.461 318.735,154.795 316.5,154.5C 316.83,173.341 316.497,192.007 315.5,210.5C 315.5,191.5 315.5,172.5 315.5,153.5C 317.833,153.5 320.167,153.5 322.5,153.5 Z"/></g>
<g><path style="opacity:0.925" fill="#88919c" d="M 377.5,155.5 C 384.909,154.61 389.742,157.61 392,164.5C 392.667,177.167 392.667,189.833 392,202.5C 390.578,208.473 386.745,211.473 380.5,211.5C 373.729,211.533 369.896,208.2 369,201.5C 368.333,189.5 368.333,177.5 369,165.5C 369.776,160.212 372.609,156.879 377.5,155.5 Z M 379.5,162.5 C 381.911,162.137 383.411,163.137 384,165.5C 384.667,177.167 384.667,188.833 384,200.5C 381.734,205.79 379.401,205.79 377,200.5C 376.333,189.167 376.333,177.833 377,166.5C 377.48,164.867 378.313,163.534 379.5,162.5 Z"/></g>
<g><path style="opacity:0.934" fill="#87919c" d="M 428.5,155.5 C 437.006,154.489 441.839,158.156 443,166.5C 443.499,172.491 443.666,178.491 443.5,184.5C 438.167,184.5 432.833,184.5 427.5,184.5C 427.334,189.844 427.501,195.177 428,200.5C 429.738,205.147 431.904,205.481 434.5,201.5C 435.362,197.547 435.695,193.547 435.5,189.5C 438.167,189.5 440.833,189.5 443.5,189.5C 444.143,196.454 442.809,202.954 439.5,209C 432.223,213.04 426.057,211.873 421,205.5C 419.409,192.223 419.076,178.89 420,165.5C 420.776,160.212 423.609,156.879 428.5,155.5 Z M 430.5,162.5 C 433.388,162.22 434.888,163.553 435,166.5C 435.499,170.486 435.666,174.486 435.5,178.5C 432.833,178.5 430.167,178.5 427.5,178.5C 427.334,174.486 427.501,170.486 428,166.5C 428.48,164.867 429.313,163.534 430.5,162.5 Z"/></g>
<g><path style="opacity:0.937" fill="#87919c" d="M 482.5,155.5 C 486.505,155.169 489.838,156.503 492.5,159.5C 499.758,153.347 505.591,154.347 510,162.5C 510.5,178.497 510.667,194.497 510.5,210.5C 507.833,210.5 505.167,210.5 502.5,210.5C 502.667,195.496 502.5,180.496 502,165.5C 499.439,161.754 496.772,161.754 494,165.5C 493.5,180.496 493.333,195.496 493.5,210.5C 490.833,210.5 488.167,210.5 485.5,210.5C 485.667,195.163 485.5,179.83 485,164.5C 480.475,161.762 477.808,163.095 477,168.5C 476.5,182.496 476.333,196.496 476.5,210.5C 473.833,210.5 471.167,210.5 468.5,210.5C 468.5,192.5 468.5,174.5 468.5,156.5C 471.167,156.5 473.833,156.5 476.5,156.5C 476.351,157.552 476.517,158.552 477,159.5C 478.5,157.531 480.333,156.198 482.5,155.5 Z"/></g>
<g><path style="opacity:0.953" fill="#868f9a" d="M 546.5,155.5 C 551.609,154.923 555.776,156.59 559,160.5C 561.128,168.295 561.628,176.128 560.5,184C 555.511,184.499 550.511,184.666 545.5,184.5C 545.334,190.509 545.501,196.509 546,202.5C 548,205.167 550,205.167 552,202.5C 552.499,198.179 552.666,193.846 552.5,189.5C 555.167,189.5 557.833,189.5 560.5,189.5C 560.666,194.179 560.499,198.845 560,203.5C 557.735,209.872 553.235,212.372 546.5,211C 539.349,208.99 536.183,204.157 537,196.5C 536.333,187.5 536.333,178.5 537,169.5C 536.996,162.464 540.163,157.798 546.5,155.5 Z M 547.5,162.5 C 549.39,162.297 550.89,162.963 552,164.5C 552.499,169.155 552.666,173.821 552.5,178.5C 550.167,178.5 547.833,178.5 545.5,178.5C 545.334,173.821 545.501,169.155 546,164.5C 546.717,163.956 547.217,163.289 547.5,162.5 Z"/></g>
<g><path style="opacity:0.941" fill="#87909b" d="M 594.5,155.5 C 601.794,154.419 606.294,157.419 608,164.5C 608.499,168.152 608.665,171.818 608.5,175.5C 605.833,175.5 603.167,175.5 600.5,175.5C 600.665,171.818 600.499,168.152 600,164.5C 598.112,162.078 596.112,162.078 594,164.5C 593.299,167.928 593.632,171.262 595,174.5C 600.08,178.909 604.414,183.909 608,189.5C 610.256,195.675 609.923,201.675 607,207.5C 593.706,214.885 586.54,210.885 585.5,195.5C 585.551,193.9 585.884,192.4 586.5,191C 588.81,190.503 591.143,190.337 593.5,190.5C 593.344,194.582 593.844,198.582 595,202.5C 597.321,205.033 599.321,204.699 601,201.5C 601.652,198.406 601.318,195.406 600,192.5C 596,187.833 592,183.167 588,178.5C 585.148,172.645 584.815,166.645 587,160.5C 589.17,158.177 591.67,156.51 594.5,155.5 Z"/></g>
<g><path style="opacity:0.939" fill="#87919c" d="M 624.5,155.5 C 629.351,154.784 633.518,156.117 637,159.5C 638.89,165.01 639.723,170.676 639.5,176.5C 636.833,176.5 634.167,176.5 631.5,176.5C 631.851,171.988 631.185,167.655 629.5,163.5C 626.744,162.367 624.911,163.367 624,166.5C 623.188,178.546 623.354,190.546 624.5,202.5C 626.353,203.76 628.186,203.76 630,202.5C 631.195,198.249 631.695,193.915 631.5,189.5C 634.167,189.5 636.833,189.5 639.5,189.5C 640.143,196.454 638.809,202.954 635.5,209C 628.223,213.04 622.057,211.873 617,205.5C 615.409,192.223 615.076,178.89 616,165.5C 616.761,160.264 619.594,156.931 624.5,155.5 Z"/></g>
<g><path style="opacity:0.931" fill="#87919c" d="M 655.5,155.5 C 663.751,154.063 668.584,157.396 670,165.5C 670.5,171.825 670.666,178.158 670.5,184.5C 665.167,184.5 659.833,184.5 654.5,184.5C 654.334,189.511 654.501,194.511 655,199.5C 655.901,204.55 658.067,205.383 661.5,202C 662.404,197.889 662.737,193.722 662.5,189.5C 665.167,189.5 667.833,189.5 670.5,189.5C 671.28,196.517 669.947,203.017 666.5,209C 661.167,212.333 655.833,212.333 650.5,209C 649.54,207.581 648.707,206.081 648,204.5C 646.414,191.89 646.08,179.224 647,166.5C 647.843,161.172 650.677,157.505 655.5,155.5 Z M 657.5,162.5 C 659.911,162.137 661.411,163.137 662,165.5C 662.499,169.821 662.666,174.154 662.5,178.5C 659.833,178.5 657.167,178.5 654.5,178.5C 654.334,174.486 654.501,170.486 655,166.5C 655.662,165.016 656.496,163.683 657.5,162.5 Z"/></g>
<g><path style="opacity:0.936" fill="#87909b" d="M 761.5,155.5 C 770.006,154.489 774.839,158.156 776,166.5C 776.498,169.482 776.665,172.482 776.5,175.5C 773.833,175.5 771.167,175.5 768.5,175.5C 768.665,172.482 768.498,169.482 768,166.5C 766.848,162.573 764.848,161.906 762,164.5C 761.333,167.167 761.333,169.833 762,172.5C 766.667,178.5 771.333,184.5 776,190.5C 778.327,196.873 777.66,202.873 774,208.5C 768.621,212.256 763.121,212.423 757.5,209C 753.995,203.396 752.662,197.229 753.5,190.5C 756.167,190.5 758.833,190.5 761.5,190.5C 761.146,194.637 761.646,198.637 763,202.5C 763.837,204.007 765.004,204.507 766.5,204C 767.966,202.448 768.966,200.614 769.5,198.5C 767.548,191.034 763.381,185.034 757,180.5C 753.699,174.958 752.699,168.958 754,162.5C 755.767,159.228 758.267,156.895 761.5,155.5 Z"/></g>
<g><path style="opacity:0.951" fill="#87909b" d="M 824.5,183.5 C 819.167,183.5 813.833,183.5 808.5,183.5C 808.179,189.026 808.512,194.36 809.5,199.5C 809.997,204.493 812.164,205.493 816,202.5C 816.499,198.179 816.666,193.846 816.5,189.5C 819.167,189.5 821.833,189.5 824.5,189.5C 824.789,195.245 824.289,200.912 823,206.5C 816.333,213.167 809.667,213.167 803,206.5C 800.075,192.25 799.741,177.917 802,163.5C 805.725,155.895 811.558,153.728 819.5,157C 820.667,158.167 821.833,159.333 823,160.5C 824.396,168.08 824.896,175.747 824.5,183.5 Z M 811.5,162.5 C 813.39,162.297 814.89,162.963 816,164.5C 816.499,169.155 816.666,173.821 816.5,178.5C 814.167,178.5 811.833,178.5 809.5,178.5C 809.334,173.821 809.501,169.155 810,164.5C 810.717,163.956 811.217,163.289 811.5,162.5 Z"/></g>
<g><path style="opacity:0.943" fill="#87919b" d="M 841.5,155.5 C 847.767,154.736 852.267,157.07 855,162.5C 855.994,167.118 856.494,171.785 856.5,176.5C 853.833,176.5 851.167,176.5 848.5,176.5C 848.579,172.05 847.912,167.717 846.5,163.5C 844.091,162.278 842.258,162.945 841,165.5C 840.333,177.5 840.333,189.5 841,201.5C 842.614,204.825 844.614,205.158 847,202.5C 847.923,198.21 848.423,193.877 848.5,189.5C 851.167,189.5 853.833,189.5 856.5,189.5C 856.412,194.536 855.912,199.536 855,204.5C 850.352,211.808 844.186,213.308 836.5,209C 835.299,208.097 834.465,206.931 834,205.5C 832.388,191.903 832.055,178.236 833,164.5C 834.015,159.654 836.849,156.654 841.5,155.5 Z"/></g>
<g><path style="opacity:0.914" fill="#87919b" d="M 351.5,189.5 C 351.369,190.376 351.702,191.043 352.5,191.5C 353.386,190.675 353.719,189.675 353.5,188.5C 354.106,177.829 354.773,167.163 355.5,156.5C 357.833,156.5 360.167,156.5 362.5,156.5C 360.664,174.518 358.664,192.518 356.5,210.5C 353.833,210.5 351.167,210.5 348.5,210.5C 347.165,197.822 345.665,185.155 344,172.5C 341.892,184.815 339.892,197.148 338,209.5C 335.619,210.435 333.119,210.768 330.5,210.5C 328.5,192.5 326.5,174.5 324.5,156.5C 326.833,156.5 329.167,156.5 331.5,156.5C 332.456,168.514 333.623,180.514 335,192.5C 336.735,180.52 338.235,168.52 339.5,156.5C 342.167,156.5 344.833,156.5 347.5,156.5C 349.021,167.477 350.354,178.477 351.5,189.5 Z"/></g>
<g><path style="opacity:0.92" fill="#88929d" d="M 404.5,218.5 C 403.833,218.5 403.167,218.5 402.5,218.5C 401.432,217.566 400.099,217.232 398.5,217.5C 398.5,215.5 398.5,213.5 398.5,211.5C 399.833,211.5 401.167,211.5 402.5,211.5C 402.5,193.167 402.5,174.833 402.5,156.5C 405.167,156.5 407.833,156.5 410.5,156.5C 410.667,175.503 410.5,194.503 410,213.5C 408.893,216.113 407.06,217.78 404.5,218.5 Z"/></g>
<g><path style="opacity:0.986" fill="#858e98" d="M 519.5,156.5 C 522.5,156.5 525.5,156.5 528.5,156.5C 528.5,174.5 528.5,192.5 528.5,210.5C 525.5,210.5 522.5,210.5 519.5,210.5C 519.5,192.5 519.5,174.5 519.5,156.5 Z"/></g>
<g><path style="opacity:0.986" fill="#858e98" d="M 571.5,218.5 C 570.833,218.5 570.167,218.5 569.5,218.5C 568.432,217.566 567.099,217.232 565.5,217.5C 564.599,213.759 565.932,211.759 569.5,211.5C 569.5,193.167 569.5,174.833 569.5,156.5C 572.5,156.5 575.5,156.5 578.5,156.5C 578.667,174.17 578.5,191.836 578,209.5C 578.234,214.404 576.067,217.404 571.5,218.5 Z"/></g>
<g><path style="opacity:0.917" fill="#87919b" d="M 692.5,156.5 C 695.119,156.232 697.619,156.565 700,157.5C 701,168.5 702,179.5 703,190.5C 705.342,179.272 707.176,167.939 708.5,156.5C 711.394,156.042 713.894,156.709 716,158.5C 717.853,170.14 719.52,181.807 721,193.5C 722.077,181.15 723.244,168.817 724.5,156.5C 726.833,156.5 729.167,156.5 731.5,156.5C 729.253,174.143 727.086,191.809 725,209.5C 722.043,211.077 719.376,210.744 717,208.5C 715.741,196.758 714.074,185.091 712,173.5C 710.119,185.837 708.285,198.17 706.5,210.5C 703.881,210.768 701.381,210.435 699,209.5C 697.077,191.78 694.91,174.113 692.5,156.5 Z"/></g>
<g><path style="opacity:0.986" fill="#858e98" d="M 783.5,156.5 C 786.5,156.5 789.5,156.5 792.5,156.5C 792.5,174.5 792.5,192.5 792.5,210.5C 789.5,210.5 786.5,210.5 783.5,210.5C 783.5,192.5 783.5,174.5 783.5,156.5 Z"/></g>
<g><path style="opacity:0.916" fill="#88929d" d="M 864.5,156.5 C 867.167,156.5 869.833,156.5 872.5,156.5C 872.5,174.5 872.5,192.5 872.5,210.5C 869.833,210.5 867.167,210.5 864.5,210.5C 864.5,192.5 864.5,174.5 864.5,156.5 Z"/></g>
<g><path style="opacity:0.067" fill="#777b83" d="M 824.5,183.5 C 819.695,184.487 814.695,184.821 809.5,184.5C 809.5,189.5 809.5,194.5 809.5,199.5C 808.512,194.36 808.179,189.026 808.5,183.5C 813.833,183.5 819.167,183.5 824.5,183.5 Z"/></g>
<g><path style="opacity:0.235" fill="#767b82" d="M 353.5,188.5 C 353.719,189.675 353.386,190.675 352.5,191.5C 351.702,191.043 351.369,190.376 351.5,189.5C 352.167,189.167 352.833,188.833 353.5,188.5 Z"/></g>
</svg>
